<svg version="1.1" xmlns="http://www.w3.org/2000/svg" x="0" y="0" viewBox="0 0 187 53.8" xml:space="preserve"><style>path{fill:#9d9d9d}</style><g id="Layer_1"><path fill="#FFF" d="M26.9 5C14.8 5 5 14.8 5 26.9 5 39 14.8 48.8 27 48.8c12.1 0 22-9.8 22-21.9C48.9 14.8 39 5 26.9 5zm2.1.9c.2 0 .3 0 .5-.1h.4c3.5.5 6.8 1.9 9.6 4-1.3 0-7.9 2-7.6 10.5.1 1.5-.9 2.6-2 3.4-.2-.2-.4-.3-.6-.5 1-2.1 1.3-4.9-1.7-7.3-4.4-3.4-1.7-9.2 1.4-10zm.1 20.9c0 1.2-1 2.3-2.3 2.3h-.1c-.5-.1-1-.3-1.4-.6-.9-.9-.9-2.3 0-3.2.5-.5 1.1-.7 1.7-.7 1.2 0 2.1 1 2.1 2.2zM14.3 9.9c2.9-2.2 6.1-3.5 9.5-4-.9.6-4.4 6.9 2 12.9 1.1 1 1.3 2.5 1 3.8h-.5c-.8-2.2-2.6-4.4-6.4-4-6 .7-8.1-6.4-5.6-8.7zm-4.2 4.2c-.3.7 1.5 8.1 10.5 7.8 1.5-.1 2.6.8 3.3 1.9l-.5.5c-2.2-1-5-1.3-7.4 1.7-3.5 4.4-9.4 1.7-10.1-1.5.5-3.7 1.9-7.3 4.2-10.4zm0 25.4c-2.2-2.8-3.5-6.1-4-9.5 1.1 1 7.1 4 12.7-2.2 1-1.1 2.5-1.3 3.8-1 0 .2 0 .5.1.7-2.2.8-4.3 2.6-3.9 6.3.8 6.1-6.3 8.2-8.7 5.7zm14 8.2c-3.5-.5-6.8-1.8-9.7-4 .7.3 8.1-1.5 7.8-10.5-.1-1.5.8-2.6 1.9-3.4.1.1.3.2.4.3-1 2.2-1.3 5 1.7 7.4 4.6 3.7 1.3 10.1-2.1 10.2zm16-4.5c-2.9 2.3-6.4 3.9-10.3 4.5.7-.3 4.7-6.8-1.9-12.9-1.1-1-1.3-2.5-1-3.8.2 0 .5 0 .7-.1.8 2.2 2.6 4.5 6.4 4 5.7-.6 8 5.6 6.1 8.3zm3.8-4.1c-.1-1.5-2.2-7.8-10.5-7.5-1.6.1-2.7-.9-3.4-2 .1-.1.2-.3.4-.4 2.1 1 4.9 1.2 7.3-1.7 3.7-4.7 10.1-1.3 10.2 2-.6 3.6-1.9 6.9-4 9.6zm-.5-25.4c2.2 2.8 3.8 6.3 4.3 10-.5-.8-6.9-4.6-12.9 2-1 1.1-2.4 1.2-3.7 1 0-.2 0-.4-.1-.6 2.2-.8 4.5-2.6 4-6.4-.6-5.6 5.4-7.8 8.1-6.1.2 0 .3.1.3.1z"/><path fill="#FFF" d="M26.9 53.8C12.1 53.8 0 41.8 0 26.9 0 12.1 12.1 0 26.9 0c14.8 0 26.9 12.1 26.9 26.9 0 14.9-12 26.9-26.9 26.9zm0-50.3C14 3.5 3.4 14 3.4 26.9c0 12.9 10.5 23.5 23.5 23.5 12.9 0 23.5-10.5 23.5-23.5C50.4 14 39.9 3.5 26.9 3.5zM52.9 10.3S50.4 2.2 42.5 0c0 0 6.9 3.9 10.4 10.3zM.6 43.1S3.1 51.2 11 53.4c0 0-6.9-3.9-10.4-10.3z"/><g fill="#FFF"><path d="M63.5 12.2h10.4v3.3h-6.5v9.2h5.9V28h-5.9v13.2h-3.9v-29zM77.2 12.2h3.9v25.7h6.4v3.3H77.2v-29zM86.6 12.2h4.1l1.9 6.3c.1.2.1.4.2.6.1.2.1.5.2.7.7 2.3 1.2 4.2 1.5 5.7.2-1.6.4-2.6.6-3.2l.6-2.6.2-1 1.6-6.6h4.1l-5.1 16.5v12.5h-3.9V28.7l-6-16.5zM104.2 12.2h3.8l2 13.5.3 2c.1 1.1.3 2.1.3 2.9l.2 2.5v.3c0 .2 0 .4.1.6l.1-.9c.1-1.6.3-3.1.5-4.5s.4-2.6.6-3.8l2.1-12.5h3l2 12.2c.3 1.8.5 3.5.7 5 .2 1.5.4 3 .5 4.4.1-1.5.3-2.9.4-4.3.2-1.4.3-2.7.5-4.1l.3-1.9 1.7-11.3h3.7l-5.1 29h-3l-2-12.5s0-.3-.1-.6c0-.4-.1-.9-.2-1.6l-.4-2.9c0-.2-.1-.6-.1-1-.1-.5-.1-1-.2-1.7l-.1-1.2c0 .3-.1.5-.1.8 0 .2 0 .4-.1.5-.1.8-.1 1.5-.2 1.9 0 .5-.1.7-.1.8l-.4 2.8c-.1.6-.2 1.1-.2 1.5 0 .4-.1.6-.1.7l-2.1 12.5h-3.1l-5.2-29.1zM130.4 12.2h3.9v11.3h5.7V12.2h3.9v29H140V26.8h-5.7v14.4h-3.9v-29zM148.1 12.2h10.4v3.3H152v9.2h5.7V28H152v9.9h6.5v3.3h-10.4v-29zM162.4 12.2h10.4v3.3h-6.5v9.2h5.7V28h-5.7v9.9h6.5v3.3h-10.4v-29zM176.7 12.2h3.9v25.7h6.4v3.3h-10.3v-29z"/></g></g></svg>