<?xml version="1.0" encoding="utf-8"?>
<!-- Generator: Adobe Illustrator 18.1.0, SVG Export Plug-In . SVG Version: 6.00 Build 0)  -->
<svg version="1.1" xmlns="http://www.w3.org/2000/svg" xmlns:xlink="http://www.w3.org/1999/xlink" x="0px" y="0px"
	viewBox="0 0 187 53.8" enable-background="new 0 0 187 53.8" xml:space="preserve">
	<style>
		path {
			fill: #9D9D9D;
		}
	</style>
	<g id="Layer_1">
		<path fill="#FFFFFF" d="M26.9,5C14.8,5,5,14.8,5,26.9c0,12.1,9.8,21.9,22,21.9c12.1,0,22-9.8,22-21.9C48.9,14.8,39,5,26.9,5zM29,5.9c0.2,0,0.3,0,0.5-0.1c0.1,0,0.2,0,0.3,0c0,0,0.1,0,0.1,0c3.5,0.5,6.8,1.9,9.6,4c-1.3,0-7.9,2-7.6,10.5c0.1,1.5-0.9,2.6-2,3.4c-0.2-0.2-0.4-0.3-0.6-0.5c1-2.1,1.3-4.9-1.7-7.3C23.2,12.5,25.9,6.7,29,5.9z M29.1,26.8c0,1.2-1,2.3-2.3,2.3c0,0-0.1,0-0.1,0c-0.5-0.1-1-0.3-1.4-0.6c-0.9-0.9-0.9-2.3,0-3.2c0.5-0.5,1.1-0.7,1.7-0.7C28.2,24.6,29.1,25.6,29.1,26.8z M14.3,9.9c2.9-2.2,6.1-3.5,9.5-4c-0.9,0.6-4.4,6.9,2,12.9c1.1,1,1.3,2.5,1,3.8c-0.2,0-0.3,0-0.5,0c-0.8-2.2-2.6-4.4-6.4-4C13.9,19.3,11.8,12.2,14.3,9.9z M10.1,14.1c-0.3,0.7,1.5,8.1,10.5,7.8c1.5-0.1,2.6,0.8,3.3,1.9c-0.2,0.2-0.3,0.3-0.5,0.5c-2.2-1-5-1.3-7.4,1.7c-3.5,4.4-9.4,1.7-10.1-1.5C6.4,20.8,7.8,17.2,10.1,14.1z M10.1,39.5c-2.2-2.8-3.5-6.1-4-9.5c1.1,1,7.1,4,12.7-2.2c1-1.1,2.5-1.3,3.8-1c0,0.2,0,0.5,0.1,0.7c-2.2,0.8-4.3,2.6-3.9,6.3C19.6,39.9,12.5,42,10.1,39.5z M24.1,47.7c-3.5-0.5-6.8-1.8-9.7-4c0.7,0.3,8.1-1.5,7.8-10.5c-0.1-1.5,0.8-2.6,1.9-3.4c0.1,0.1,0.3,0.2,0.4,0.3c-1,2.2-1.3,5,1.7,7.4C30.8,41.2,27.5,47.6,24.1,47.7z M40.1,43.2c-2.9,2.3-6.4,3.9-10.3,4.5c0.7-0.3,4.7-6.8-1.9-12.9c-1.1-1-1.3-2.5-1-3.8c0.2,0,0.5,0,0.7-0.1c0.8,2.2,2.6,4.5,6.4,4C39.7,34.3,42,40.5,40.1,43.2zM43.9,39.1c-0.1-1.5-2.2-7.8-10.5-7.5c-1.6,0.1-2.7-0.9-3.4-2c0.1-0.1,0.2-0.3,0.4-0.4c2.1,1,4.9,1.2,7.3-1.7c3.7-4.7,10.1-1.3,10.2,2C47.3,33.1,46,36.4,43.9,39.1z M43.4,13.7c2.2,2.8,3.8,6.3,4.3,10c-0.5-0.8-6.9-4.6-12.9,2c-1,1.1-2.4,1.2-3.7,1c0-0.2,0-0.4-0.1-0.6c2.2-0.8,4.5-2.6,4-6.4c-0.6-5.6,5.4-7.8,8.1-6.1C43.3,13.6,43.4,13.7,43.4,13.7z"/>
		<g>
			<path fill="#FFFFFF" d="M26.9,53.8C12.1,53.8,0,41.8,0,26.9C0,12.1,12.1,0,26.9,0c14.8,0,26.9,12.1,26.9,26.9C53.8,41.8,41.8,53.8,26.9,53.8z M26.9,3.5C14,3.5,3.4,14,3.4,26.9c0,12.9,10.5,23.5,23.5,23.5c12.9,0,23.5-10.5,23.5-23.5C50.4,14,39.9,3.5,26.9,3.5z"/>
		</g>
		<path fill="#FFFFFF" d="M52.9,10.3c0,0-2.5-8.1-10.4-10.3C42.5,0,49.4,3.9,52.9,10.3z"/>
		<path fill="#FFFFFF" d="M0.6,43.1c0,0,2.5,8.1,10.4,10.3C11,53.4,4.1,49.5,0.6,43.1z"/>
		<g>
			<path fill="#FFFFFF" d="M63.5,12.2h10.4v3.3h-6.5v9.2h5.9V28h-5.9v13.2h-3.9V12.2z"/>
			<path fill="#FFFFFF" d="M77.2,12.2h3.9v25.7h6.4v3.3H77.2V12.2z"/>
			<path fill="#FFFFFF" d="M86.6,12.2h4.1l1.9,6.3c0.1,0.2,0.1,0.4,0.2,0.6c0.1,0.2,0.1,0.5,0.2,0.7c0.7,2.3,1.2,4.2,1.5,5.7c0.2-1.6,0.4-2.6,0.6-3.2l0.6-2.6l0.2-1l1.6-6.6h4.1l-5.1,16.5v12.5h-3.9V28.7L86.6,12.2z"/>
			<path fill="#FFFFFF" d="M104.2,12.2h3.8l2,13.5l0.3,2c0.1,1.1,0.3,2.1,0.3,2.9l0.2,2.5c0,0.1,0,0.2,0,0.3c0,0.2,0,0.4,0.1,0.6l0.1-0.9c0.1-1.6,0.3-3.1,0.5-4.5c0.2-1.4,0.4-2.6,0.6-3.8l2.1-12.5h3l2,12.2c0.3,1.8,0.5,3.5,0.7,5c0.2,1.5,0.4,3,0.5,4.4c0.1-1.5,0.3-2.9,0.4-4.3c0.2-1.4,0.3-2.7,0.5-4.1l0.3-1.9l1.7-11.3h3.7l-5.1,29h-3l-2-12.5c0,0,0-0.3-0.1-0.6c0-0.4-0.1-0.9-0.2-1.6l-0.4-2.9c0-0.2-0.1-0.6-0.1-1c-0.1-0.5-0.1-1-0.2-1.7l-0.1-1.2c0,0.3-0.1,0.5-0.1,0.8c0,0.2,0,0.4-0.1,0.5c-0.1,0.8-0.1,1.5-0.2,1.9c0,0.5-0.1,0.7-0.1,0.8l-0.4,2.8c-0.1,0.6-0.2,1.1-0.2,1.5c0,0.4-0.1,0.6-0.1,0.7l-2.1,12.5h-3.1L104.2,12.2z"/>
			<path fill="#FFFFFF" d="M130.4,12.2h3.9v11.3h5.7V12.2h3.9v29H140V26.8h-5.7v14.4h-3.9V12.2z"/>
			<path fill="#FFFFFF" d="M148.1,12.2h10.4v3.3H152v9.2h5.7V28H152v9.9h6.5v3.3h-10.4V12.2z"/>
			<path fill="#FFFFFF" d="M162.4,12.2h10.4v3.3h-6.5v9.2h5.7V28h-5.7v9.9h6.5v3.3h-10.4V12.2z"/>
			<path fill="#FFFFFF" d="M176.7,12.2h3.9v25.7h6.4v3.3h-10.3V12.2z"/>
		</g>
	</g>
</svg>
